<?xml version="1.0" encoding="utf-8"?>
<!-- Generator: Adobe Illustrator 27.0.0, SVG Export Plug-In . SVG Version: 6.00 Build 0)  -->
<svg version="1.1" id="Layer_1" xmlns="http://www.w3.org/2000/svg" xmlns:xlink="http://www.w3.org/1999/xlink" x="0px" y="0px"
	 viewBox="0 0 600 500" style="enable-background:new 0 0 600 500;" xml:space="preserve">
<style type="text/css">
	.st0{clip-path:url(#SVGID_00000010281354238558893280000008376258154866093473_);fill:#FFFFFF;}
	.st1{fill:#FFFFFF;}
	.st2{fill:none;stroke:#262626;stroke-width:0.6667;stroke-linecap:square;stroke-linejoin:round;stroke-miterlimit:10;}
	.st3{fill:#262626;}
	.st4{font-family:'MyriadPro-Regular';}
	.st5{font-size:12.6667px;}
	.st6{font-size:13.9333px;}
	.st7{fill:none;stroke:#33E6CC;stroke-width:0.6667;stroke-linejoin:round;stroke-miterlimit:10;}
	.st8{font-size:11.4px;}
	.st9{fill:none;stroke:#333333;stroke-width:0.6667;stroke-linecap:square;stroke-linejoin:round;stroke-miterlimit:10;}
	.st10{fill:none;stroke:#CC80E6;stroke-width:0.6667;stroke-linejoin:round;stroke-miterlimit:10;}
	.st11{font-size:12px;}
	.st12{font-size:13.2px;}
	.st13{fill:#33E6CC;fill-opacity:0.6;}
	.st14{fill:none;stroke:#000000;stroke-width:0.6667;stroke-linecap:square;stroke-miterlimit:10;}
	.st15{fill:#CC80E6;fill-opacity:0.6;}
	.st16{fill:none;stroke:#229988;stroke-width:2.6667;stroke-linejoin:round;stroke-miterlimit:10;}
	.st17{fill:none;stroke:#885599;stroke-width:2.6667;stroke-linejoin:bevel;stroke-miterlimit:1;stroke-dasharray:8,8;}
	.st18{font-size:10.8px;}
	.st19{fill:none;stroke:#000000;stroke-width:0.6667;stroke-miterlimit:10;}
	.st20{fill:none;stroke:#262626;stroke-width:0.6667;stroke-miterlimit:10;}
</style>
<g>
	<g>
		<defs>
			<rect id="SVGID_1_" width="600" height="500"/>
		</defs>
		<clipPath id="SVGID_00000141457098683829723560000002634689850235724192_">
			<use xlink:href="#SVGID_1_"  style="overflow:visible;"/>
		</clipPath>
		
			<rect style="clip-path:url(#SVGID_00000141457098683829723560000002634689850235724192_);fill:#FFFFFF;" width="600" height="500"/>
	</g>
</g>
<g>
	<rect class="st1" width="600" height="500"/>
</g>
<g>
	<line class="st2" x1="78" y1="194.5" x2="222" y2="194.5"/>
	<line class="st2" x1="94.9" y1="194.5" x2="94.9" y2="193.1"/>
	<line class="st2" x1="151.4" y1="194.5" x2="151.4" y2="193.1"/>
	<line class="st2" x1="207.9" y1="194.5" x2="207.9" y2="193.1"/>
</g>
<g transform="translate(94.9412,199.0333)">
	<text transform="matrix(1 0 0 1 -7.5 13)" class="st3 st4 st5">0  </text>
</g>
<g transform="translate(151.4118,199.0333)">
	<text transform="matrix(1 0 0 1 -9 13)" class="st3 st4 st5">0.5</text>
</g>
<g transform="translate(207.8824,199.0333)">
	<text transform="matrix(1 0 0 1 -7.5 13)" class="st3 st4 st5">1  </text>
</g>
<g transform="translate(150.0001,216.0333)">
	<text transform="matrix(1 0 0 1 -55.5 14)" class="st3 st4 st6">Pfield bits (Room)</text>
</g>
<g>
	<line class="st2" x1="78" y1="194.5" x2="78" y2="50.5"/>
	<line class="st2" x1="78" y1="177.6" x2="79.4" y2="177.6"/>
	<line class="st2" x1="78" y1="121.1" x2="79.4" y2="121.1"/>
	<line class="st2" x1="78" y1="64.6" x2="79.4" y2="64.6"/>
</g>
<g transform="translate(73.4667,177.5588)">
	<text transform="matrix(1 0 0 1 -15 5)" class="st3 st4 st5">0  </text>
</g>
<g transform="translate(73.4667,121.0882)">
	<text transform="matrix(1 0 0 1 -18 5)" class="st3 st4 st5">0.5</text>
</g>
<g transform="translate(73.4667,64.6176)">
	<text transform="matrix(1 0 0 1 -15 5)" class="st3 st4 st5">1  </text>
</g>
<g transform="translate(52.1333,122.4999) rotate(-90)">
	<text transform="matrix(1 0 0 1 -55.5001 -4)" class="st3 st4 st6">Pfield bits (Arena)</text>
</g>
<g transform="translate(150.0002,47.8875)">
	<text transform="matrix(1 0 0 1 -14 -4)" class="st4 st6">CA1</text>
</g>
<g transform="matrix(0.4997,0,0,0.4997,93.5294,66.0294)">
	<g>
		<defs>
			<rect id="SVGID_00000098903957069453722690000018064745071866285243_" x="56.5" y="56.5" width="112.9" height="112.9"/>
		</defs>
		<clipPath id="SVGID_00000052822058673949208360000015155990985749863296_">
			<use xlink:href="#SVGID_00000098903957069453722690000018064745071866285243_"  style="overflow:visible;"/>
		</clipPath>
		
			<image style="overflow:visible;clip-path:url(#SVGID_00000052822058673949208360000015155990985749863296_);enable-background:new    ;" width="226" height="226" xlink:href="C525250C.png" >
		</image>
	</g>
</g>
<g>
	<line class="st7" x1="94.9" y1="177.6" x2="205.1" y2="67.4"/>
	<line class="st2" x1="231" y1="195" x2="245" y2="195"/>
	<line class="st2" x1="231" y1="50" x2="245" y2="50"/>
	<line class="st2" x1="231" y1="195" x2="231" y2="50"/>
	<line class="st2" x1="245" y1="195" x2="245" y2="50"/>
</g>
<g transform="matrix(0.5,0,0,0.5,231,50)">
	<g>
		<defs>
			<rect id="SVGID_00000012458398129765137480000014401368949392985248_" x="7" y="72.5" width="14" height="145"/>
		</defs>
		<clipPath id="SVGID_00000002360387547662279690000009379283794659501990_">
			<use xlink:href="#SVGID_00000012458398129765137480000014401368949392985248_"  style="overflow:visible;"/>
		</clipPath>
		
			<image style="overflow:visible;clip-path:url(#SVGID_00000002360387547662279690000009379283794659501990_);enable-background:new    ;" width="28" height="290" xlink:href="C525250C.png" >
		</image>
	</g>
</g>
<g>
	<line class="st2" x1="245" y1="195" x2="245" y2="50"/>
	<line class="st2" x1="245" y1="195" x2="243.6" y2="195"/>
	<line class="st2" x1="245" y1="122.5" x2="243.6" y2="122.5"/>
	<line class="st2" x1="245" y1="50" x2="243.6" y2="50"/>
</g>
<g transform="translate(249.9467,195)">
	<text transform="matrix(1 0 0 1 0 4.5)" class="st3 st4 st8">0</text>
</g>
<g transform="translate(249.9467,122.5)">
	<text transform="matrix(1 0 0 1 0 4.5)" class="st3 st4 st8">25</text>
</g>
<g transform="translate(249.9467,50)">
	<text transform="matrix(1 0 0 1 0 4.5)" class="st3 st4 st8">50</text>
</g>
<g>
	<line class="st2" x1="231" y1="50" x2="245" y2="50"/>
	<line class="st2" x1="231" y1="195" x2="245" y2="195"/>
	<line class="st2" x1="231" y1="195" x2="231" y2="50"/>
	<line class="st2" x1="245" y1="195" x2="245" y2="50"/>
	<line class="st9" x1="231" y1="195" x2="231" y2="195"/>
	<line class="st9" x1="231" y1="50" x2="231" y2="50"/>
	<line class="st9" x1="245" y1="195" x2="245" y2="195"/>
	<line class="st9" x1="245" y1="50" x2="245" y2="50"/>
	<line class="st2" x1="342" y1="194.5" x2="486" y2="194.5"/>
	<line class="st2" x1="358.9" y1="194.5" x2="358.9" y2="193.1"/>
	<line class="st2" x1="415.4" y1="194.5" x2="415.4" y2="193.1"/>
	<line class="st2" x1="471.9" y1="194.5" x2="471.9" y2="193.1"/>
</g>
<g transform="translate(358.9412,199.0333)">
	<text transform="matrix(1 0 0 1 -7.5 13)" class="st3 st4 st5">0  </text>
</g>
<g transform="translate(415.4118,199.0333)">
	<text transform="matrix(1 0 0 1 -9 13)" class="st3 st4 st5">0.5</text>
</g>
<g transform="translate(471.8824,199.0333)">
	<text transform="matrix(1 0 0 1 -7.5 13)" class="st3 st4 st5">1  </text>
</g>
<g transform="translate(414.0001,216.0333)">
	<text transform="matrix(1 0 0 1 -55.5 14)" class="st3 st4 st6">Pfield bits (Room)</text>
</g>
<g>
	<line class="st2" x1="342" y1="194.5" x2="342" y2="50.5"/>
	<line class="st2" x1="342" y1="177.6" x2="343.4" y2="177.6"/>
	<line class="st2" x1="342" y1="121.1" x2="343.4" y2="121.1"/>
	<line class="st2" x1="342" y1="64.6" x2="343.4" y2="64.6"/>
</g>
<g transform="translate(337.4667,177.5588)">
	<text transform="matrix(1 0 0 1 -15 5)" class="st3 st4 st5">0  </text>
</g>
<g transform="translate(337.4667,121.0882)">
	<text transform="matrix(1 0 0 1 -18 5)" class="st3 st4 st5">0.5</text>
</g>
<g transform="translate(337.4667,64.6176)">
	<text transform="matrix(1 0 0 1 -15 5)" class="st3 st4 st5">1  </text>
</g>
<g transform="translate(316.1333,122.4999) rotate(-90)">
	<text transform="matrix(1 0 0 1 -55.5001 -4)" class="st3 st4 st6">Pfield bits (Arena)</text>
</g>
<g transform="translate(414.0004,47.8875)">
	<text transform="matrix(1 0 0 1 -15.5 -4)" class="st4 st6">ACC</text>
</g>
<g transform="matrix(0.4997,0,0,0.4997,357.5294,66.0294)">
	<g>
		<defs>
			<rect id="SVGID_00000169535055061595092360000003158417221694290822_" x="56.5" y="56.5" width="112.9" height="112.9"/>
		</defs>
		<clipPath id="SVGID_00000042699047740833355390000018182898854169355400_">
			<use xlink:href="#SVGID_00000169535055061595092360000003158417221694290822_"  style="overflow:visible;"/>
		</clipPath>
		
			<image style="overflow:visible;clip-path:url(#SVGID_00000042699047740833355390000018182898854169355400_);enable-background:new    ;" width="226" height="226" xlink:href="C525250C.png" >
		</image>
	</g>
</g>
<g>
	<line class="st10" x1="358.9" y1="177.6" x2="469.1" y2="67.4"/>
	<line class="st2" x1="495" y1="195" x2="509" y2="195"/>
	<line class="st2" x1="495" y1="50" x2="509" y2="50"/>
	<line class="st2" x1="495" y1="195" x2="495" y2="50"/>
	<line class="st2" x1="509" y1="195" x2="509" y2="50"/>
</g>
<g transform="matrix(0.5,0,0,0.5,495,50)">
	<g>
		<defs>
			<rect id="SVGID_00000165928960888280919120000007801142041964575934_" x="7" y="72.5" width="14" height="145"/>
		</defs>
		<clipPath id="SVGID_00000131369583742424052060000000920205069848523696_">
			<use xlink:href="#SVGID_00000165928960888280919120000007801142041964575934_"  style="overflow:visible;"/>
		</clipPath>
		
			<image style="overflow:visible;clip-path:url(#SVGID_00000131369583742424052060000000920205069848523696_);enable-background:new    ;" width="28" height="290" xlink:href="C5252514.png" >
		</image>
	</g>
</g>
<g>
	<line class="st2" x1="509" y1="195" x2="509" y2="50"/>
	<line class="st2" x1="509" y1="195" x2="507.5" y2="195"/>
	<line class="st2" x1="509" y1="122.5" x2="507.5" y2="122.5"/>
	<line class="st2" x1="509" y1="50" x2="507.5" y2="50"/>
</g>
<g transform="translate(513.9467,195)">
	<text transform="matrix(1 0 0 1 0 4.5)" class="st3 st4 st8">0</text>
</g>
<g transform="translate(513.9467,122.5)">
	<text transform="matrix(1 0 0 1 0 4.5)" class="st3 st4 st8">80</text>
</g>
<g transform="translate(513.9467,50)">
	<text transform="matrix(1 0 0 1 0 4.5)" class="st3 st4 st8">160</text>
</g>
<g>
	<line class="st2" x1="495" y1="50" x2="509" y2="50"/>
	<line class="st2" x1="495" y1="195" x2="509" y2="195"/>
	<line class="st2" x1="495" y1="195" x2="495" y2="50"/>
	<line class="st2" x1="509" y1="195" x2="509" y2="50"/>
	<line class="st9" x1="495" y1="195" x2="495" y2="195"/>
	<line class="st9" x1="495" y1="50" x2="495" y2="50"/>
	<line class="st9" x1="509" y1="195" x2="509" y2="195"/>
	<line class="st9" x1="509" y1="50" x2="509" y2="50"/>
</g>
<g>
	<path class="st1" d="M78,445h465V274H78V445z"/>
</g>
<g>
	<line class="st2" x1="78" y1="445" x2="543" y2="445"/>
	<line class="st2" x1="99.1" y1="445" x2="99.1" y2="440.4"/>
	<line class="st2" x1="141.4" y1="445" x2="141.4" y2="440.4"/>
	<line class="st2" x1="183.7" y1="445" x2="183.7" y2="440.4"/>
	<line class="st2" x1="226" y1="445" x2="226" y2="440.4"/>
	<line class="st2" x1="268.2" y1="445" x2="268.2" y2="440.4"/>
	<line class="st2" x1="310.5" y1="445" x2="310.5" y2="440.4"/>
	<line class="st2" x1="352.8" y1="445" x2="352.8" y2="440.4"/>
	<line class="st2" x1="395" y1="445" x2="395" y2="440.4"/>
	<line class="st2" x1="437.3" y1="445" x2="437.3" y2="440.4"/>
	<line class="st2" x1="479.6" y1="445" x2="479.6" y2="440.4"/>
	<line class="st2" x1="521.9" y1="445" x2="521.9" y2="440.4"/>
</g>
<g transform="translate(99.1364,448.7333)">
	<text transform="matrix(1 0 0 1 -5.5 13)" class="st3 st4 st11">-1</text>
</g>
<g transform="translate(141.4091,448.7333)">
	<text transform="matrix(1 0 0 1 -10.5 13)" class="st3 st4 st11">-0.8</text>
</g>
<g transform="translate(183.6818,448.7333)">
	<text transform="matrix(1 0 0 1 -10.5 13)" class="st3 st4 st11">-0.6</text>
</g>
<g transform="translate(225.9545,448.7333)">
	<text transform="matrix(1 0 0 1 -10.5 13)" class="st3 st4 st11">-0.4</text>
</g>
<g transform="translate(268.2273,448.7333)">
	<text transform="matrix(1 0 0 1 -10.5 13)" class="st3 st4 st11">-0.2</text>
</g>
<g transform="translate(310.5,448.7333)">
	<text transform="matrix(1 0 0 1 -3.5 13)" class="st3 st4 st11">0</text>
</g>
<g transform="translate(352.7727,448.7333)">
	<text transform="matrix(1 0 0 1 -8.5 13)" class="st3 st4 st11">0.2</text>
</g>
<g transform="translate(395.0454,448.7333)">
	<text transform="matrix(1 0 0 1 -8.5 13)" class="st3 st4 st11">0.4</text>
</g>
<g transform="translate(437.3182,448.7333)">
	<text transform="matrix(1 0 0 1 -8.5 13)" class="st3 st4 st11">0.6</text>
</g>
<g transform="translate(479.5909,448.7333)">
	<text transform="matrix(1 0 0 1 -8.5 13)" class="st3 st4 st11">0.8</text>
</g>
<g transform="translate(521.8636,448.7333)">
	<text transform="matrix(1 0 0 1 -3.5 13)" class="st3 st4 st11">1</text>
</g>
<g transform="translate(310.5002,465.4)">
	<text transform="matrix(1 0 0 1 -110 14)" class="st3 st4 st12">Frame preference, bits (Room-Arena)</text>
</g>
<g>
	<line class="st2" x1="78" y1="445" x2="78" y2="274"/>
	<line class="st2" x1="78" y1="434.3" x2="82.7" y2="434.3"/>
	<line class="st2" x1="78" y1="380.9" x2="82.7" y2="380.9"/>
	<line class="st2" x1="78" y1="327.4" x2="82.7" y2="327.4"/>
	<line class="st2" x1="78" y1="274" x2="82.7" y2="274"/>
</g>
<g transform="translate(74.2667,434.3125)">
	<text transform="matrix(1 0 0 1 -7 5)" class="st3 st4 st11">0</text>
</g>
<g transform="translate(74.2667,380.875)">
	<text transform="matrix(1 0 0 1 -21 5)" class="st3 st4 st11">500</text>
</g>
<g transform="translate(74.2667,327.4375)">
	<text transform="matrix(1 0 0 1 -27 5)" class="st3 st4 st11">1000</text>
</g>
<g transform="translate(74.2667,274)">
	<text transform="matrix(1 0 0 1 -27 5)" class="st3 st4 st11">1500</text>
</g>
<g transform="translate(44.6,359.4999) rotate(-90)">
	<text transform="matrix(1 0 0 1 -46.0001 -3)" class="st3 st4 st12">Number of cells</text>
</g>
<g>
	<path class="st13" d="M104.4,434.3v-2.7h-5.3v2.7H104.4z M109.7,434.3V431h-5.3v3.3H109.7z M115,434.3v-3.4h-5.3v3.4H115z
		 M120.3,434.3v-2.7H115v2.7H120.3z M125.6,434.3V430h-5.3v4.3H125.6z M130.8,434.3v-4.5h-5.3v4.5H130.8z M136.1,434.3v-3.6h-5.3
		v3.6H136.1z M141.4,434.3v-5.2h-5.3v5.2H141.4z M146.7,434.3v-6.2h-5.3v6.2H146.7z M152,434.3v-5.8h-5.3v5.8H152z M157.3,434.3V427
		H152v7.3H157.3z M162.5,434.3v-7.5h-5.3v7.5H162.5z M167.8,434.3v-8.8h-5.3v8.8H167.8z M173.1,434.3v-10h-5.3v10H173.1z
		 M178.4,434.3v-11h-5.3v11H178.4z M183.7,434.3v-11.1h-5.3v11.1H183.7z M189,434.3v-10.7h-5.3v10.7H189z M194.2,434.3v-13.8H189
		v13.8H194.2z M199.5,434.3v-16.9h-5.3v16.9H199.5z M204.8,434.3v-18.7h-5.3v18.7H204.8z M210.1,434.3v-19.6h-5.3v19.6H210.1z
		 M215.4,434.3v-17.6h-5.3v17.6H215.4z M220.7,434.3v-22.4h-5.3v22.4H220.7z M226,434.3v-24.5h-5.3v24.5H226z M231.2,405.2H226v29.1
		h5.3h5.3v-29.1H231.2z M241.8,434.3v-34.8h-5.3v34.8H241.8z M247.1,434.3v-39.7h-5.3v39.7H247.1z M252.4,434.3v-41.1h-5.3v41.1
		H252.4z M257.7,434.3v-45.7h-5.3v45.7H257.7z M262.9,434.3v-48.2h-5.3v48.2H262.9z M268.2,434.3v-52.7h-5.3v52.7H268.2z
		 M273.5,434.3v-55.6h-5.3v55.6H273.5z M278.8,434.3v-58.7h-5.3v58.7H278.8z M284.1,434.3v-66h-5.3v66H284.1z M289.4,434.3v-69.7
		h-5.3v69.7H289.4z M294.6,434.3v-74.2h-5.3v74.2H294.6z M299.9,434.3v-75h-5.3v75H299.9z M305.2,434.3v-74.2h-5.3v74.2H305.2z
		 M310.5,434.3v-81.4h-5.3v81.4H310.5z M315.8,434.3v-67.7h-5.3v67.7H315.8z M321.1,434.3V378h-5.3v56.3H321.1z M326.4,434.3v-49.9
		h-5.3v49.9H326.4z M331.6,434.3v-39.9h-5.3v39.9H331.6z M336.9,434.3v-35.9h-5.3v35.9H336.9z M342.2,434.3v-31.1h-5.3v31.1H342.2z
		 M347.5,434.3v-29.1h-5.3v29.1H347.5z M352.8,434.3v-23.5h-5.3v23.5H352.8z M358.1,434.3v-20.7h-5.3v20.7H358.1z M363.3,434.3V416
		h-5.3v18.3H363.3z M368.6,434.3v-14h-5.3v14H368.6z M373.9,434.3v-12.8h-5.3v12.8H373.9z M379.2,434.3v-13.1h-5.3v13.1H379.2z
		 M384.5,434.3v-10.4h-5.3v10.4H384.5z M389.8,434.3v-10.5h-5.3v10.5H389.8z M395,434.3v-9h-5.3v9H395z M400.3,426.3H395v8h5.3h5.3
		v-8H400.3z M410.9,434.3v-7.4h-5.3v7.4H410.9z M416.2,434.3v-6.7h-5.3v6.7H416.2z M421.5,434.3v-5.6h-5.3v5.6H421.5z M426.8,434.3
		v-4.7h-5.3v4.7H426.8z M432,434.3v-3.5h-5.3v3.5H432z M437.3,434.3v-4.1H432v4.1H437.3z M442.6,434.3v-4.6h-5.3v4.6H442.6z
		 M447.9,434.3v-2.5h-5.3v2.5H447.9z M453.2,434.3v-1.8h-5.3v1.8H453.2z M458.5,434.3v-3.4h-5.3v3.4H458.5z M463.7,434.3v-2h-5.3v2
		H463.7z M469,434.3v-2.6h-5.3v2.6H469z M474.3,434.3V433H469v1.3H474.3z M479.6,434.3v-2.9h-5.3v2.9H479.6z M484.9,434.3v-1.7h-5.3
		v1.7H484.9z M490.2,434.3v-1.5h-5.3v1.5H490.2z M495.4,434.3v-1.2h-5.3v1.2H495.4z M500.7,434.3v-2h-5.3v2H500.7z M506,434.3v-1.2
		h-5.3v1.2H506z M511.3,434.3v-0.7H506v0.7H511.3z M516.6,433.7h-5.3v0.6h5.3h5.3v-0.6H516.6z"/>
</g>
<g>
	<path class="st14" d="M99.1,434.3v-2.7h5.3"/>
	<path class="st14" d="M104.4,434.3L104.4,434.3V431h5.3"/>
	<path class="st14" d="M109.7,434.3L109.7,434.3v-3.4h5.3v3.4l0,0"/>
	<line class="st14" x1="115" y1="431.6" x2="120.3" y2="431.6"/>
	<path class="st14" d="M120.3,434.3L120.3,434.3V430h5.3"/>
	<path class="st14" d="M125.6,434.3L125.6,434.3v-4.5h5.3v4.5l0,0"/>
	<line class="st14" x1="130.8" y1="430.7" x2="136.1" y2="430.7"/>
	<path class="st14" d="M136.1,434.3L136.1,434.3v-5.2h5.3"/>
	<path class="st14" d="M141.4,434.3L141.4,434.3v-6.2h5.3v6.2l0,0"/>
	<line class="st14" x1="146.7" y1="428.5" x2="152" y2="428.5"/>
	<path class="st14" d="M152,434.3L152,434.3V427h5.3"/>
	<path class="st14" d="M157.3,434.3L157.3,434.3v-7.5h5.3"/>
	<path class="st14" d="M162.5,434.3L162.5,434.3v-8.8h5.3"/>
	<path class="st14" d="M167.8,434.3L167.8,434.3v-10h5.3"/>
	<path class="st14" d="M173.1,434.3L173.1,434.3v-11h5.3"/>
	<path class="st14" d="M178.4,434.3L178.4,434.3v-11.1h5.3v11.1l0,0"/>
	<line class="st14" x1="183.7" y1="423.6" x2="189" y2="423.6"/>
	<path class="st14" d="M189,434.3L189,434.3v-13.8h5.3"/>
	<path class="st14" d="M194.2,434.3L194.2,434.3v-16.9h5.3"/>
	<path class="st14" d="M199.5,434.3L199.5,434.3v-18.7h5.3"/>
	<path class="st14" d="M204.8,434.3L204.8,434.3v-19.6h5.3v19.6l0,0"/>
	<line class="st14" x1="210.1" y1="416.7" x2="215.4" y2="416.7"/>
	<path class="st14" d="M215.4,434.3L215.4,434.3v-22.4h5.3"/>
	<path class="st14" d="M220.7,434.3L220.7,434.3v-24.5h5.3"/>
	<path class="st14" d="M226,434.3L226,434.3v-29.1h5.3v29.1l0,0"/>
	<line class="st14" x1="231.2" y1="405.2" x2="236.5" y2="405.2"/>
	<path class="st14" d="M236.5,434.3L236.5,434.3v-34.8h5.3"/>
	<path class="st14" d="M241.8,434.3L241.8,434.3v-39.7h5.3"/>
	<path class="st14" d="M247.1,434.3L247.1,434.3v-41.1h5.3"/>
	<path class="st14" d="M252.4,434.3L252.4,434.3v-45.7h5.3"/>
	<path class="st14" d="M257.7,434.3L257.7,434.3v-48.2h5.3"/>
	<path class="st14" d="M262.9,434.3L262.9,434.3v-52.7h5.3"/>
	<path class="st14" d="M268.2,434.3L268.2,434.3v-55.6h5.3"/>
	<path class="st14" d="M273.5,434.3L273.5,434.3v-58.7h5.3"/>
	<path class="st14" d="M278.8,434.3L278.8,434.3v-66h5.3"/>
	<path class="st14" d="M284.1,434.3L284.1,434.3v-69.7h5.3"/>
	<path class="st14" d="M289.4,434.3L289.4,434.3v-74.2h5.3"/>
	<path class="st14" d="M294.6,434.3L294.6,434.3v-75h5.3v75l0,0"/>
	<line class="st14" x1="299.9" y1="360.1" x2="305.2" y2="360.1"/>
	<path class="st14" d="M305.2,434.3L305.2,434.3v-81.4h5.3v81.4l0,0"/>
	<path class="st14" d="M310.5,366.7h5.3v67.7l0,0"/>
	<path class="st14" d="M315.8,378h5.3v56.3l0,0"/>
	<path class="st14" d="M321.1,384.4h5.3v49.9l0,0"/>
	<path class="st14" d="M326.4,394.4h5.3v39.9l0,0"/>
	<path class="st14" d="M331.6,398.4h5.3v35.9l0,0"/>
	<path class="st14" d="M336.9,403.2h5.3v31.1l0,0"/>
	<path class="st14" d="M342.2,405.2h5.3v29.1l0,0"/>
	<path class="st14" d="M347.5,410.8h5.3v23.5l0,0"/>
	<path class="st14" d="M352.8,413.6h5.3v20.7l0,0"/>
	<path class="st14" d="M358.1,416h5.3v18.3l0,0"/>
	<path class="st14" d="M363.3,420.3h5.3v14l0,0"/>
	<line class="st14" x1="368.6" y1="421.5" x2="373.9" y2="421.5"/>
	<path class="st14" d="M373.9,434.3L373.9,434.3v-13.1h5.3v13.1l0,0"/>
	<line class="st14" x1="379.2" y1="423.9" x2="384.5" y2="423.9"/>
	<path class="st14" d="M384.5,434.3L384.5,434.3v-10.5h5.3v10.5l0,0"/>
	<path class="st14" d="M389.8,425.3h5.3v9l0,0"/>
	<path class="st14" d="M395,426.3h5.3v8l0,0"/>
	<path class="st14" d="M400.3,426.3h5.3v8l0,0"/>
	<path class="st14" d="M405.6,426.9h5.3v7.4l0,0"/>
	<path class="st14" d="M410.9,427.6h5.3v6.7l0,0"/>
	<path class="st14" d="M416.2,428.8h5.3v5.6l0,0"/>
	<path class="st14" d="M421.5,429.6h5.3v4.7l0,0"/>
	<line class="st14" x1="426.8" y1="430.8" x2="432" y2="430.8"/>
	<path class="st14" d="M432,434.3L432,434.3v-4.1h5.3"/>
	<path class="st14" d="M437.3,434.3L437.3,434.3v-4.6h5.3v4.6l0,0"/>
	<path class="st14" d="M442.6,431.9h5.3v2.5l0,0"/>
	<line class="st14" x1="447.9" y1="432.5" x2="453.2" y2="432.5"/>
	<path class="st14" d="M453.2,434.3L453.2,434.3v-3.4h5.3v3.4l0,0"/>
	<line class="st14" x1="458.5" y1="432.3" x2="463.7" y2="432.3"/>
	<path class="st14" d="M463.7,434.3L463.7,434.3v-2.6h5.3v2.6l0,0"/>
	<line class="st14" x1="469" y1="433" x2="474.3" y2="433"/>
	<path class="st14" d="M474.3,434.3L474.3,434.3v-2.9h5.3v2.9l0,0"/>
	<path class="st14" d="M479.6,432.6h5.3v1.7l0,0"/>
	<path class="st14" d="M484.9,432.8h5.3v1.5l0,0"/>
	<line class="st14" x1="490.2" y1="433.1" x2="495.4" y2="433.1"/>
	<path class="st14" d="M495.4,434.3L495.4,434.3v-2h5.3v2l0,0"/>
	<path class="st14" d="M500.7,433.1h5.3v1.2l0,0"/>
	<path class="st14" d="M506,433.6h5.3v0.7l0,0"/>
	<path class="st14" d="M511.3,433.7h5.3v0.6l0,0"/>
	<path class="st14" d="M516.6,433.7h5.3v0.6"/>
</g>
<g>
	<path class="st15" d="M141.4,434.3v-0.1h-5.3v0.1H141.4z M146.7,434.3v-0.2h-5.3v0.2H146.7z M162.5,434.2h-5.3v0.1h5.3h5.3v-0.1
		H162.5z M178.4,433.9h-5.3v0.4h5.3h5.3v-0.4H178.4z M189,434.3V434h-5.3v0.3H189z M194.2,434.3v-0.2H189v0.2H194.2z M199.5,433.8
		h-5.3v0.5h5.3h5.3v-0.5H199.5z M210.1,434.3v-1.4h-5.3v1.4H210.1z M215.4,434.3v-0.4h-5.3v0.4H215.4z M220.7,434.3v-1h-5.3v1H220.7
		z M226,434.3v-1.1h-5.3v1.1H226z M231.2,434.3v-1.4H226v1.4H231.2z M236.5,434.3v-2.1h-5.3v2.1H236.5z M241.8,434.3V431h-5.3v3.3
		H241.8z M247.1,434.3v-3h-5.3v3H247.1z M252.4,434.3v-4.8h-5.3v4.8H252.4z M257.7,434.3V430h-5.3v4.3H257.7z M262.9,434.3v-7.7
		h-5.3v7.7H262.9z M268.2,434.3v-9.5h-5.3v9.5H268.2z M273.5,434.3V422h-5.3v12.3H273.5z M278.8,434.3v-18.2h-5.3v18.2H278.8z
		 M284.1,434.3v-21.8h-5.3v21.8H284.1z M289.4,434.3v-31.8h-5.3v31.8H289.4z M294.6,434.3v-46.7h-5.3v46.7H294.6z M299.9,434.3v-67
		h-5.3v67H299.9z M305.2,434.3V342h-5.3v92.3H305.2z M310.5,434.3V316.8h-5.3v117.6H310.5z M315.8,434.3V300.2h-5.3v134.1H315.8z
		 M321.1,434.3V323.4h-5.3v110.9H321.1z M326.4,434.3v-86.1h-5.3v86.1H326.4z M331.6,434.3v-62.9h-5.3v62.9H331.6z M336.9,434.3
		v-48.2h-5.3v48.2H336.9z M342.2,434.3v-35.2h-5.3v35.2H342.2z M347.5,434.3v-24.3h-5.3v24.3H347.5z M352.8,434.3v-16.7h-5.3v16.7
		H352.8z M358.1,434.3v-14.1h-5.3v14.1H358.1z M363.3,434.3v-11.9h-5.3v11.9H363.3z M368.6,434.3v-7.6h-5.3v7.6H368.6z M373.9,434.3
		v-6.4h-5.3v6.4H373.9z M379.2,434.3v-4.6h-5.3v4.6H379.2z M384.5,434.3V430h-5.3v4.3H384.5z M389.8,434.3v-4.2h-5.3v4.2H389.8z
		 M395,434.3v-3.2h-5.3v3.2H395z M400.3,434.3v-2.2H395v2.2H400.3z M405.6,434.3v-1.2h-5.3v1.2H405.6z M410.9,434.3v-1.7h-5.3v1.7
		H410.9z M416.2,434.3v-1.2h-5.3v1.2H416.2z M421.5,434.3v-1.4h-5.3v1.4H421.5z M426.8,434.3v-1.1h-5.3v1.1H426.8z M432,434.3v-0.9
		h-5.3v0.9H432z M437.3,433.6H432v0.7h5.3h5.3v-0.7H437.3z M447.9,434.3v-0.2h-5.3v0.2H447.9z M453.2,434.3V434h-5.3v0.3H453.2z
		 M458.5,434.3v-0.2h-5.3v0.2H458.5z M463.7,434.3V434h-5.3v0.3H463.7z M469,434.2h-5.3v0.1h5.3h5.3v-0.1H469z M479.6,434.1h-5.3
		v0.2h5.3h5.3v-0.2H479.6z M495.4,434.3V434h-5.3v0.3H495.4z M500.7,434.3v-0.2h-5.3v0.2H500.7z M506,434.3v-0.1h-5.3v0.1H506z
		 M511.3,434.3v-0.2H506v0.2H511.3z M516.6,434.3v-0.1h-5.3v0.1H516.6z"/>
</g>
<g>
	<path class="st14" d="M99.1,434.3L99.1,434.3h5.3l0,0l0,0"/>
	<path class="st14" d="M104.4,434.3h5.3l0,0l0,0"/>
	<path class="st14" d="M109.7,434.3h5.3l0,0l0,0"/>
	<path class="st14" d="M115,434.3h5.3l0,0l0,0"/>
	<path class="st14" d="M120.3,434.3h5.3l0,0l0,0"/>
	<path class="st14" d="M125.6,434.3h5.3l0,0l0,0"/>
	<line class="st14" x1="130.8" y1="434.3" x2="136.1" y2="434.3"/>
	<path class="st14" d="M136.1,434.3L136.1,434.3v-0.1h5.3"/>
	<path class="st14" d="M141.4,434.3L141.4,434.3v-0.2h5.3v0.2l0,0"/>
	<path class="st14" d="M146.7,434.3h5.3l0,0l0,0"/>
	<line class="st14" x1="152" y1="434.3" x2="157.3" y2="434.3"/>
	<path class="st14" d="M157.3,434.3L157.3,434.3v-0.1h5.3v0.1l0,0"/>
	<path class="st14" d="M162.5,434.2h5.3v0.1l0,0"/>
	<line class="st14" x1="167.8" y1="434.3" x2="173.1" y2="434.3"/>
	<path class="st14" d="M173.1,434.3L173.1,434.3v-0.4h5.3v0.4l0,0"/>
	<path class="st14" d="M178.4,433.9h5.3v0.4l0,0"/>
	<path class="st14" d="M183.7,434h5.3v0.3l0,0"/>
	<line class="st14" x1="189" y1="434.1" x2="194.2" y2="434.1"/>
	<path class="st14" d="M194.2,434.3L194.2,434.3v-0.5h5.3v0.5l0,0"/>
	<line class="st14" x1="199.5" y1="433.8" x2="204.8" y2="433.8"/>
	<path class="st14" d="M204.8,434.3L204.8,434.3v-1.4h5.3v1.4l0,0"/>
	<line class="st14" x1="210.1" y1="433.9" x2="215.4" y2="433.9"/>
	<path class="st14" d="M215.4,434.3L215.4,434.3v-1h5.3"/>
	<path class="st14" d="M220.7,434.3L220.7,434.3v-1.1h5.3"/>
	<path class="st14" d="M226,434.3L226,434.3v-1.4h5.3"/>
	<path class="st14" d="M231.2,434.3L231.2,434.3v-2.1h5.3"/>
	<path class="st14" d="M236.5,434.3L236.5,434.3V431h5.3v3.3l0,0"/>
	<line class="st14" x1="241.8" y1="431.3" x2="247.1" y2="431.3"/>
	<path class="st14" d="M247.1,434.3L247.1,434.3v-4.8h5.3v4.8l0,0"/>
	<line class="st14" x1="252.4" y1="430" x2="257.7" y2="430"/>
	<path class="st14" d="M257.7,434.3L257.7,434.3v-7.7h5.3"/>
	<path class="st14" d="M262.9,434.3L262.9,434.3v-9.5h5.3"/>
	<path class="st14" d="M268.2,434.3L268.2,434.3V422h5.3"/>
	<path class="st14" d="M273.5,434.3L273.5,434.3v-18.2h5.3"/>
	<path class="st14" d="M278.8,434.3L278.8,434.3v-21.8h5.3"/>
	<path class="st14" d="M284.1,434.3L284.1,434.3v-31.8h5.3"/>
	<path class="st14" d="M289.4,434.3L289.4,434.3v-46.7h5.3"/>
	<path class="st14" d="M294.6,434.3L294.6,434.3v-67h5.3"/>
	<path class="st14" d="M299.9,434.3L299.9,434.3V342h5.3"/>
	<path class="st14" d="M305.2,434.3L305.2,434.3V316.8h5.3"/>
	<path class="st14" d="M310.5,434.3L310.5,434.3V300.2h5.3v134.1l0,0"/>
	<path class="st14" d="M315.8,323.4h5.3v110.9l0,0"/>
	<path class="st14" d="M321.1,348.2h5.3v86.1l0,0"/>
	<path class="st14" d="M326.4,371.4h5.3v62.9l0,0"/>
	<path class="st14" d="M331.6,386.1h5.3v48.2l0,0"/>
	<path class="st14" d="M336.9,399.2h5.3v35.2l0,0"/>
	<path class="st14" d="M342.2,410.1h5.3v24.3l0,0"/>
	<path class="st14" d="M347.5,417.6h5.3v16.7l0,0"/>
	<path class="st14" d="M352.8,420.2h5.3v14.1l0,0"/>
	<path class="st14" d="M358.1,422.4h5.3v11.9l0,0"/>
	<path class="st14" d="M363.3,426.7h5.3v7.6l0,0"/>
	<path class="st14" d="M368.6,427.9h5.3v6.4l0,0"/>
	<path class="st14" d="M373.9,429.7h5.3v4.6l0,0"/>
	<path class="st14" d="M379.2,430h5.3v4.3l0,0"/>
	<path class="st14" d="M384.5,430.1h5.3v4.2l0,0"/>
	<path class="st14" d="M389.8,431.1h5.3v3.2l0,0"/>
	<path class="st14" d="M395,432.1h5.3v2.2l0,0"/>
	<line class="st14" x1="400.3" y1="433.1" x2="405.6" y2="433.1"/>
	<path class="st14" d="M405.6,434.3L405.6,434.3v-1.7h5.3v1.7l0,0"/>
	<line class="st14" x1="410.9" y1="433.1" x2="416.2" y2="433.1"/>
	<path class="st14" d="M416.2,434.3L416.2,434.3v-1.4h5.3v1.4l0,0"/>
	<path class="st14" d="M421.5,433.2h5.3v1.1l0,0"/>
	<path class="st14" d="M426.8,433.5h5.3v0.9l0,0"/>
	<path class="st14" d="M432,433.6h5.3v0.7l0,0"/>
	<path class="st14" d="M437.3,433.6h5.3v0.7l0,0"/>
	<line class="st14" x1="442.6" y1="434.1" x2="447.9" y2="434.1"/>
	<path class="st14" d="M447.9,434.3L447.9,434.3V434h5.3v0.3l0,0"/>
	<line class="st14" x1="453.2" y1="434.1" x2="458.5" y2="434.1"/>
	<path class="st14" d="M458.5,434.3L458.5,434.3V434h5.3v0.3l0,0"/>
	<path class="st14" d="M463.7,434.2h5.3v0.1l0,0"/>
	<line class="st14" x1="469" y1="434.2" x2="474.3" y2="434.2"/>
	<path class="st14" d="M474.3,434.3L474.3,434.3v-0.2h5.3v0.2l0,0"/>
	<path class="st14" d="M479.6,434.1h5.3v0.2l0,0"/>
	<line class="st14" x1="484.9" y1="434.3" x2="490.2" y2="434.3"/>
	<path class="st14" d="M490.2,434.3L490.2,434.3V434h5.3v0.3l0,0"/>
	<path class="st14" d="M495.4,434.1h5.3v0.2l0,0"/>
	<line class="st14" x1="500.7" y1="434.2" x2="506" y2="434.2"/>
	<path class="st14" d="M506,434.3L506,434.3v-0.2h5.3v0.2l0,0"/>
	<path class="st14" d="M511.3,434.2h5.3v0.1l0,0"/>
	<path class="st14" d="M516.6,434.3h5.3l0,0"/>
</g>
<g>
	<line class="st16" x1="289.5" y1="445" x2="289.5" y2="274"/>
</g>
<g>
	<line class="st17" x1="313.2" y1="445" x2="313.2" y2="274"/>
</g>
<g>
	<path class="st1" d="M532,315v-33h-74v33H532z"/>
</g>
<g transform="translate(505,291.1385)">
	<text transform="matrix(1 0 0 1 0 4)" class="st4 st18">CA1</text>
</g>
<g>
	<path class="st13" d="M502,296.5v-10.7h-40v10.7H502z"/>
</g>
<g>
	<path class="st19" d="M462,296.5v-10.7h40v10.7H462z"/>
</g>
<g transform="translate(505,305.8615)">
	<text transform="matrix(1 0 0 1 0 4)" class="st4 st18">ACC</text>
</g>
<g>
	<path class="st15" d="M502,311.2v-10.7h-40v10.7H502z"/>
</g>
<g>
	<path class="st19" d="M462,311.2v-10.7h40v10.7H462z"/>
	<path class="st20" d="M458,315v-33h74v33H458z"/>
</g>
</svg>
