<?xml version="1.0" encoding="utf-8"?>
<!-- Generator: Adobe Illustrator 27.0.0, SVG Export Plug-In . SVG Version: 6.00 Build 0)  -->
<svg version="1.1" id="Layer_1" xmlns="http://www.w3.org/2000/svg" xmlns:xlink="http://www.w3.org/1999/xlink" x="0px" y="0px"
	 viewBox="0 0 663 369" style="enable-background:new 0 0 663 369;" xml:space="preserve">
<style type="text/css">
	.st0{fill:#FFFFFF;}
	.st1{fill:none;stroke:#262626;stroke-width:0.6667;stroke-linecap:square;stroke-linejoin:round;stroke-miterlimit:10;}
	.st2{fill:#262626;}
	.st3{font-family:'MyriadPro-Regular';}
	.st4{font-size:12.6667px;}
	.st5{font-size:13.9333px;}
	.st6{fill:none;stroke:#000000;stroke-width:0.6667;stroke-linejoin:round;stroke-miterlimit:10;}
	.st7{fill:#FF0000;fill-opacity:0.8;}
	.st8{fill:#FF4300;fill-opacity:0.8;}
	.st9{fill:#FF8500;fill-opacity:0.8;}
	.st10{fill:#FFC800;fill-opacity:0.8;}
	.st11{fill:#F4FF00;fill-opacity:0.8;}
	.st12{fill:#B1FF00;fill-opacity:0.8;}
	.st13{fill:#6FFF00;fill-opacity:0.8;}
	.st14{fill:#2CFF00;fill-opacity:0.8;}
	.st15{fill:#00FF16;fill-opacity:0.8;}
	.st16{fill:#00FF59;fill-opacity:0.8;}
	.st17{fill:#00FF9B;fill-opacity:0.8;}
	.st18{fill:#00FFDE;fill-opacity:0.8;}
	.st19{fill:#00DEFF;fill-opacity:0.8;}
	.st20{fill:#009BFF;fill-opacity:0.8;}
	.st21{fill:#0059FF;fill-opacity:0.8;}
	.st22{fill:#0016FF;fill-opacity:0.8;}
	.st23{fill:#2C00FF;fill-opacity:0.8;}
	.st24{fill:#6F00FF;fill-opacity:0.8;}
	.st25{fill:#B100FF;fill-opacity:0.8;}
	.st26{fill:#F400FF;fill-opacity:0.8;}
	.st27{fill:#FF00C8;fill-opacity:0.8;}
	.st28{fill:#FF0085;fill-opacity:0.8;}
	.st29{fill:#FF0043;fill-opacity:0.8;}
	.st30{clip-path:url(#SVGID_00000065050442237729457500000011755677788111959218_);}
</style>
<g>
	<g>
		<path class="st0" d="M600,328V28H378v300H600z"/>
	</g>
	<g>
		<line class="st1" x1="378" y1="328" x2="378" y2="28"/>
		<line class="st1" x1="378" y1="328" x2="381" y2="328"/>
		<line class="st1" x1="378" y1="290.5" x2="381" y2="290.5"/>
		<line class="st1" x1="378" y1="253" x2="381" y2="253"/>
		<line class="st1" x1="378" y1="215.5" x2="381" y2="215.5"/>
		<line class="st1" x1="378" y1="178" x2="381" y2="178"/>
		<line class="st1" x1="378" y1="140.5" x2="381" y2="140.5"/>
		<line class="st1" x1="378" y1="103" x2="381" y2="103"/>
		<line class="st1" x1="378" y1="65.5" x2="381" y2="65.5"/>
		<line class="st1" x1="378" y1="28" x2="381" y2="28"/>
	</g>
	<g transform="translate(373.4667,328)">
		<text transform="matrix(1 0 0 1 -26 5)" class="st2 st3 st4">-200</text>
	</g>
	<g transform="translate(373.4667,290.5)">
		<text transform="matrix(1 0 0 1 -26 5)" class="st2 st3 st4">-150</text>
	</g>
	<g transform="translate(373.4667,253)">
		<text transform="matrix(1 0 0 1 -26 5)" class="st2 st3 st4">-100</text>
	</g>
	<g transform="translate(373.4667,215.5)">
		<text transform="matrix(1 0 0 1 -19 5)" class="st2 st3 st4">-50</text>
	</g>
	<g transform="translate(373.4667,178)">
		<text transform="matrix(1 0 0 1 -8 5)" class="st2 st3 st4">0</text>
	</g>
	<g transform="translate(373.4667,140.5)">
		<text transform="matrix(1 0 0 1 -15 5)" class="st2 st3 st4">50</text>
	</g>
	<g transform="translate(373.4667,103)">
		<text transform="matrix(1 0 0 1 -22 5)" class="st2 st3 st4">100</text>
	</g>
	<g transform="translate(373.4667,65.5)">
		<text transform="matrix(1 0 0 1 -22 5)" class="st2 st3 st4">150</text>
	</g>
	<g transform="translate(373.4667,28)">
		<text transform="matrix(1 0 0 1 -22 5)" class="st2 st3 st4">200</text>
	</g>
	<g transform="translate(344.1333,177.9999) rotate(-90)">
		<text transform="matrix(1 0 0 1 -47.5003 -4)" class="st2 st3 st5">X Position (cm)</text>
	</g>
	<g>
		<line class="st1" x1="600" y1="328" x2="378" y2="328"/>
		<line class="st1" x1="600" y1="328" x2="600" y2="325"/>
		<line class="st1" x1="555.6" y1="328" x2="555.6" y2="325"/>
		<line class="st1" x1="511.2" y1="328" x2="511.2" y2="325"/>
		<line class="st1" x1="466.8" y1="328" x2="466.8" y2="325"/>
		<line class="st1" x1="422.4" y1="328" x2="422.4" y2="325"/>
		<line class="st1" x1="378" y1="328" x2="378" y2="325"/>
	</g>
	<g transform="translate(600,332.5333)">
		<text transform="matrix(1 0 0 1 -9.5 13)" class="st2 st3 st4">-50</text>
	</g>
	<g transform="translate(555.6,332.5333)">
		<text transform="matrix(1 0 0 1 -4 13)" class="st2 st3 st4">0</text>
	</g>
	<g transform="translate(511.2,332.5333)">
		<text transform="matrix(1 0 0 1 -7.5 13)" class="st2 st3 st4">50</text>
	</g>
	<g transform="translate(466.8,332.5333)">
		<text transform="matrix(1 0 0 1 -11 13)" class="st2 st3 st4">100</text>
	</g>
	<g transform="translate(422.4,332.5333)">
		<text transform="matrix(1 0 0 1 -11 13)" class="st2 st3 st4">150</text>
	</g>
	<g transform="translate(378,332.5333)">
		<text transform="matrix(1 0 0 1 -11 13)" class="st2 st3 st4">200</text>
	</g>
	<g transform="translate(489.0001,349.5333)">
		<text transform="matrix(1 0 0 1 -47.5 14)" class="st2 st3 st5">Y Position (cm)</text>
	</g>
	<g>
		<path class="st6" d="M558.1,275.3l-0.5-1.6l-0.3-1.7l-0.1-1.9l0-2l0.6-0.9l1.3,0l1.5,0.2l1.2,0.2l0.8,0.2l0-0.9l-0.4-1.8l-0.6-2.2
			l-0.5-2.3l0.1-1.8l0.8-1.4l1.1-1.1l1.5-0.8l2-0.3l2.1-0.3l1.9-0.3l1.6-0.3l0.7-0.7l-1-1.2l-2.7-1.7l-3-1.7l-2.9-1.6l-2.4-1.2
			l-1.2-0.7l-0.1-0.3l-0.1-0.2l0.6,0.1l1.6,0.6l2.7,1.3l2.8,1.4l2.5,1.4l1.1,0.9l0,0.3l-1.4-0.5l-1.7-0.7l-1.8-0.7l-2-0.8l-3-1.1
			l-2.2-1l-1.3-0.9l-0.6-1.3l0.5-1.8l1.9-2.2l1.3-3.1l0.7-4l0.5-4.7l0.3-5l0.1-5.3l0.1-5.6l0.3-5.4l0.1-5.1l0.1-5l0.3-5.1l0.1-5.3
			l-0.3-5.8l0-6.4l0.1-6.9l-0.2-7.2l-0.2-7.4l0-7.2l0-7.2l-0.3-7.1l-0.4-7l-0.4-6.8l-0.4-6.5l-0.6-6.1l-0.5-5.6l-0.3-4.9l-0.3-4.2
			l-0.5-3.6l-0.2-2.8l0.1-2l0.1-1.5l0.1-1.1l0.1-0.8l-0.2-0.8l-0.3-0.5l-1.2,0l-2.9,0.6l-1.3,0.5l0.1,0.3l0.3,0.2l1.1-0.2l2.7-0.8
			l1.4-0.6l0-0.2l-0.1-0.1l0,0.1l0,0.1l-0.2-0.1l-0.3-0.2l-0.3-0.2l-0.6-0.2l-3.1,0.4l-2.3,0.2l-0.3-0.3l-0.2-0.3l0.1-0.4l2.7-1
			l2-0.6l0,0l0,0.1l0,0.2l0.2,0.3l0.4,0.1l0.5,0l0.6,0l0.7,0l0.6-0.1l0.5,0l0.6,0l0.6,0l0.5-0.1l0.3-0.1l0.3,0l0.2,0.1l0.4,0.4
			l0.2,0.4l0.1,0.4l-0.4,0.3l-0.6,0.1l-0.8,0l-0.3,0l0.3,0l0.9,0.1l0.8,0.1l0.5,0l0.1,0l0.2,0l0.3,0l0.9,0.1l1.6,0.3l1.8,0.5
			l1.6,0.6l1.3,0.6l1,0.5l0.7,0.3l0.5,0.1l0.3-0.3l0.2-0.6l-0.3-0.7l-0.5-0.8l-0.6-0.7l-0.5-0.4l-0.2,0l0.2,0.3l0.5,0.5l0.6,0.6
			l0.6,0.5l0.6,0.3l0.5,0.2l0.4,0.1l0.4,0l0.4,0l0.3,0.1l0.2,0.1l0.2,0l0,0l0,0.1l0,0.1l0.1,0.1l0.1,0.1l0.2,0.1l0.1,0l0.1,0l0.1,0
			l0.2,0.2l0.1,0.5l0.1,0.8l0,0.9l-0.2,1l-0.4,0.9l-0.3,0.6l-0.1,0.2l0-0.1l0.1-0.5l0.1-0.9l-0.2-1.1l-0.3-1.3l-0.6-1.5l-0.9-1.5
			l-1.5-1.3l-1.7-1l-1.9-0.6l-1.7-0.3l-1.5-0.2l-1.2-0.2l-1.1-0.2l-1.1-0.2l-1.1-0.2l-1.2,0l-1.1,0.2l-0.7,0.3l-0.4,0.3l-0.4,0.3
			l0-0.1l0.1-0.5l0.1-0.9l0.2-0.9l0.1-1l0.1-0.9l0.2-0.8l0.4-0.7l0.4-0.8l0.5-0.6l0.7-0.5l0.7-0.3l1-0.3l0.9-0.3l0.8-0.4l0.6-0.5
			l0.5-0.6l0.3-0.5l0.4-0.4l0.6-0.5l1.1-0.4l1.2-0.5l1.1-0.4l0.8-0.4l0.4-0.2l-0.3,0.2l-1,0.6l-0.9,0.2l-0.7,0l-0.4-0.4l0.1-0.6
			l0.7-0.8l0.6-0.3l0.5-0.1l0.4,0.2l0.4,0.4l0.3,0.4l0,0.4l-0.9,0.8l-1.2,0.6l-1.5,0.3l-1.9,0.7l-1.8,1l-1.2,1.2l-1.3,1.8l-1.3,1.9
			l-1,1.6l-0.9,1.1l-0.7,0.7l-0.3,0.5l-0.1,0.7l0.1,1l0.3,1.3l0.3,1.3l0.3,1.2l0.3,0.8l-0.3,0.3l-0.9-0.1l-1.2-0.4l-1.7-0.5l-2-0.6
			l-1.7-0.5l-1.6-0.4l-1.6-0.3l-1.6-0.2l-1.9-0.3l-2.2-0.3l-2-0.3l-2.2-0.1l-2.4-0.2l-2.5-0.3l-2.7-0.5l-3.1-0.7l-3.2-1.1l-3.4-1.3
			l-3.9-1.2l-4.5-1l-5-0.7l-5.9-0.8l-6.8-0.7l-7.4-0.5l-7.9-0.5l-7.7-0.6L464,66l-4.5-0.1l-2.7-0.1l-1.1,0l-0.2,0l-0.2,0l-0.2,0
			l-0.2,0l-0.2,0l-0.2,0l-0.2,0l-0.2,0l-0.2,0l-0.2,0l-0.2,0l-0.2,0l-0.2,0l-0.2,0l-0.2,0l-0.2,0l-0.2,0l-0.2,0l-0.2,0l-0.2,0
			l-0.2,0l-0.2,0l-0.2,0l-0.2,0l-0.2,0l-0.2,0l-0.2,0l-0.2,0l-0.2,0l-0.2,0l-0.2,0l-0.2,0l-0.2,0l-0.2,0l-0.2,0l-0.2,0l-0.2,0
			l-0.2,0l-0.2,0l-0.2,0l-0.2,0l-0.2,0l-0.2,0l-0.2,0l-0.2,0l-0.2,0l-0.2,0l-0.2,0l-0.2,0l-0.2,0l-0.2,0l-0.2,0l-0.2,0l-0.2,0
			l-0.2,0l-0.2,0l-0.2,0l-0.2,0l-0.2,0l-0.2,0l-0.2,0l-0.2,0l-0.2,0l-0.2,0l-0.2,0l-0.2,0l-0.2,0l-0.2,0l-0.2,0l-0.2,0l-0.2,0
			l-0.2,0l-0.2,0l-0.2,0l-0.2,0l-0.2,0l-0.2,0l-0.2,0l-0.2,0l-0.2,0l-0.2,0l-0.2,0l-0.2,0l-0.2,0l-0.2,0l-0.2,0l-0.2,0l-0.2,0
			l-0.2,0.2l-0.1,0.4l0,0.4l0.2,0.5l0.5,0.5l1,0.3l1.3,0.1l1.5,0.2l1.4,0.1l1.1,0.3l0.5,0.7l-0.1,1.2l-0.2,1.5l0,1.7l-0.1,2
			l-0.1,2.3l0,2.7l-0.1,3.3l-0.5,4l-0.8,4.5l-0.6,5l-0.5,5.5l-0.9,5.8l-0.7,5.8l-0.4,5.9l-0.5,5.9l-0.2,5.9l0.1,6.1l-0.1,6.4l0,6.6
			l0,6.4l-0.5,6.1l-0.1,4.9l0.5,3.5l0.4,1.9l0,0.3l-0.1-1.2l-1.2-1.7l-1.9-1.9l-2.1-1.6l-1.8-0.9l-1.5-0.4l-1.1-0.1l-0.8,0.1
			l-0.6,0.2l-0.5,0.1l-0.5,0.2l-0.6,0.5l-0.9,0.7l-0.8,0.7l-0.2,0.3l0.8-0.4l1.9-1l2.8-1.6l3.1-1.9l2.4-1.8l1.8-1.2l1.5-0.7l1.3-0.2
			l1.2,0.3l1.6,0.7l1.7,0.9l1.5,0.7l1.4,0.5l1.3,0.3l1.1,0.1l0.7,0l0.7,0.1l0.5,0.3l0.4,0.7l0.1,1.3l-0.1,1.8l-0.7,1.9l-1.4,2
			l-1.8,1.8l-1.7,1.5l-1.7,1.2l-1.4,1.3l-1,1.3l-0.7,1.2l-0.6,1.2l-0.8,0.9l-1.2,0.5l-1.6,0.2l-1.6,0l-2-0.2l-2.1-0.2l-1.8-0.2
			l-1.3-0.1l-1.2-0.1l-0.6-0.1l0.4,0l1.1,0.2l1.8,0.4l2,0.5l1.9,0.6l1.5,0.8l1,1l0.4,1l0.3,1l0.3,1.1l0.4,1.2l0.6,1.3l0.5,2l0,3.1
			l-0.2,3.7l-0.3,4.1l-0.5,4.9l-0.3,5.4l0.1,5.3l0.2,5.8l0,6.5l0.1,6.6l-0.1,6.2l-0.3,6l0.1,5.7l0.5,5.1l0.5,4.4l0.4,3.7l0.5,3
			l0.6,2.3l1,1.7l1.9,1.4l2.9,1.2l4.3,0.9l5.6,0.6l6.4,0.4l7.1,0.3l7.6,0.3l7.8,0.3l7.7,0.1l7.4-0.1l7-0.5l6.8-0.9l6.4-1.1l6.2-0.8
			l5.9-0.5l5.6-0.3l4.9-0.3"/>
	</g>
	<g transform="translate(565.8583,77.155)">
		<circle class="st7" cx="0" cy="0" r="3"/>
		<circle class="st7" cx="3.4" cy="1.2" r="3"/>
		<circle class="st7" cx="4.7" cy="1.8" r="3"/>
		<circle class="st7" cx="9.9" cy="2" r="3"/>
		<circle class="st7" cx="10.1" cy="2" r="3"/>
		<circle class="st7" cx="10.1" cy="2.1" r="3"/>
		<circle class="st7" cx="10.1" cy="2.2" r="3"/>
		<circle class="st7" cx="10.2" cy="2.3" r="3"/>
		<circle class="st7" cx="10.4" cy="2.5" r="3"/>
		<circle class="st7" cx="10.5" cy="2.5" r="3"/>
		<circle class="st7" cx="10.6" cy="2.5" r="3"/>
		<circle class="st7" cx="9.7" cy="3.5" r="3"/>
		<circle class="st8" cx="10.3" cy="2.4" r="3"/>
		<circle class="st8" cx="10.7" cy="2.5" r="3"/>
		<circle class="st8" cx="10.8" cy="2.7" r="3"/>
		<circle class="st8" cx="-121.4" cy="89.9" r="3"/>
		<circle class="st8" cx="-119.9" cy="90.6" r="3"/>
		<circle class="st8" cx="-115.4" cy="91.6" r="3"/>
		<circle class="st8" cx="-114.8" cy="91.6" r="3"/>
		<circle class="st8" cx="-114.2" cy="92" r="3"/>
		<circle class="st8" cx="-73.6" cy="209.8" r="3"/>
		<circle class="st8" cx="-66.2" cy="209.7" r="3"/>
		<circle class="st8" cx="-59.2" cy="209.2" r="3"/>
		<circle class="st8" cx="-52.4" cy="208.3" r="3"/>
		<circle class="st8" cx="-46" cy="207.2" r="3"/>
		<circle class="st9" cx="11" cy="3.1" r="3"/>
		<circle class="st9" cx="11.1" cy="3.9" r="3"/>
		<circle class="st9" cx="10" cy="4.8" r="3"/>
		<circle class="st9" cx="-118.5" cy="91.1" r="3"/>
		<circle class="st9" cx="-116.2" cy="91.6" r="3"/>
		<circle class="st9" cx="-113.9" cy="92.7" r="3"/>
		<circle class="st9" cx="-110.1" cy="208.4" r="3"/>
		<circle class="st9" cx="-103.6" cy="208.8" r="3"/>
		<circle class="st9" cx="-96.6" cy="209.1" r="3"/>
		<circle class="st9" cx="-89" cy="209.4" r="3"/>
		<circle class="st9" cx="-81.3" cy="209.7" r="3"/>
		<circle class="st9" cx="-39.8" cy="206.4" r="3"/>
		<circle class="st9" cx="-33.9" cy="205.8" r="3"/>
		<circle class="st9" cx="-28.3" cy="205.5" r="3"/>
		<circle class="st9" cx="-23.3" cy="205.3" r="3"/>
		<circle class="st10" cx="11" cy="4.8" r="3"/>
		<circle class="st10" cx="10.8" cy="5.8" r="3"/>
		<circle class="st10" cx="10.4" cy="6.7" r="3"/>
		<circle class="st10" cx="10.1" cy="6.8" r="3"/>
		<circle class="st10" cx="10.2" cy="5.9" r="3"/>
		<circle class="st10" cx="-124.9" cy="-4.6" r="3"/>
		<circle class="st10" cx="-123.5" cy="-4.5" r="3"/>
		<circle class="st10" cx="-121.9" cy="-3.5" r="3"/>
		<circle class="st10" cx="-117.2" cy="91.4" r="3"/>
		<circle class="st10" cx="-113.8" cy="94" r="3"/>
		<circle class="st10" cx="-119.9" cy="206.8" r="3"/>
		<circle class="st10" cx="-115.6" cy="207.8" r="3"/>
		<circle class="st11" cx="10.2" cy="7.2" r="3"/>
		<circle class="st11" cx="10" cy="7.4" r="3"/>
		<circle class="st11" cx="10" cy="7.3" r="3"/>
		<circle class="st11" cx="-126.4" cy="-4.7" r="3"/>
		<circle class="st11" cx="-122.4" cy="-4.2" r="3"/>
		<circle class="st12" cx="-121.9" cy="-2.3" r="3"/>
		<circle class="st12" cx="-122.2" cy="3" r="3"/>
		<circle class="st12" cx="-122.3" cy="5.3" r="3"/>
		<circle class="st12" cx="-113.9" cy="95.7" r="3"/>
		<circle class="st12" cx="-122.9" cy="205.6" r="3"/>
		<circle class="st13" cx="-129.4" cy="-6.2" r="3"/>
		<circle class="st13" cx="-127.7" cy="-4.9" r="3"/>
		<circle class="st13" cx="-122.1" cy="-0.8" r="3"/>
		<circle class="st13" cx="-122.3" cy="8" r="3"/>
		<circle class="st13" cx="-114.7" cy="97.7" r="3"/>
		<circle class="st13" cx="-126.9" cy="197.2" r="3"/>
		<circle class="st13" cx="-126.4" cy="200.2" r="3"/>
		<circle class="st13" cx="-125.8" cy="202.5" r="3"/>
		<circle class="st13" cx="-124.8" cy="204.2" r="3"/>
		<circle class="st14" cx="-129.2" cy="-5.7" r="3"/>
		<circle class="st14" cx="-128.7" cy="-5.2" r="3"/>
		<circle class="st14" cx="-122.2" cy="1" r="3"/>
		<circle class="st14" cx="-122.3" cy="11.3" r="3"/>
		<circle class="st14" cx="-122.8" cy="15.2" r="3"/>
		<circle class="st14" cx="-124.2" cy="24.8" r="3"/>
		<circle class="st14" cx="-124.7" cy="30.3" r="3"/>
		<circle class="st14" cx="-126.7" cy="47.8" r="3"/>
		<circle class="st14" cx="-127.5" cy="59.5" r="3"/>
		<circle class="st14" cx="-127.3" cy="65.6" r="3"/>
		<circle class="st14" cx="-127.4" cy="78.6" r="3"/>
		<circle class="st14" cx="-127.4" cy="85.1" r="3"/>
		<circle class="st14" cx="-127.9" cy="91.2" r="3"/>
		<circle class="st14" cx="-128" cy="96.1" r="3"/>
		<circle class="st14" cx="-119.6" cy="102.9" r="3"/>
		<circle class="st14" cx="-121.2" cy="104.1" r="3"/>
		<circle class="st14" cx="-128.8" cy="115.1" r="3"/>
		<circle class="st14" cx="-128.5" cy="116.3" r="3"/>
		<circle class="st14" cx="-128.1" cy="117.5" r="3"/>
		<circle class="st14" cx="-127.1" cy="120.8" r="3"/>
		<circle class="st14" cx="-127" cy="123.9" r="3"/>
		<circle class="st14" cx="-127.2" cy="127.6" r="3"/>
		<circle class="st14" cx="-127.6" cy="131.7" r="3"/>
		<circle class="st14" cx="-128" cy="136.5" r="3"/>
		<circle class="st14" cx="-128.3" cy="142" r="3"/>
		<circle class="st14" cx="-128.2" cy="147.2" r="3"/>
		<circle class="st14" cx="-128" cy="153" r="3"/>
		<circle class="st14" cx="-128" cy="159.5" r="3"/>
		<circle class="st14" cx="-128" cy="166.1" r="3"/>
		<circle class="st14" cx="-128.1" cy="172.3" r="3"/>
		<circle class="st14" cx="-128.3" cy="178.3" r="3"/>
		<circle class="st14" cx="-128.3" cy="184.1" r="3"/>
		<circle class="st14" cx="-127.7" cy="189.2" r="3"/>
		<circle class="st14" cx="-127.3" cy="193.5" r="3"/>
		<circle class="st15" cx="-9.3" cy="-0.5" r="3"/>
		<circle class="st15" cx="-9" cy="0.9" r="3"/>
		<circle class="st15" cx="-129.3" cy="-6.5" r="3"/>
		<circle class="st15" cx="-123.6" cy="19.7" r="3"/>
		<circle class="st15" cx="-125.6" cy="36" r="3"/>
		<circle class="st15" cx="-126.3" cy="41.8" r="3"/>
		<circle class="st15" cx="-127.3" cy="53.7" r="3"/>
		<circle class="st15" cx="-127.4" cy="72.1" r="3"/>
		<circle class="st15" cx="-127.5" cy="99.6" r="3"/>
		<circle class="st15" cx="-116" cy="99.6" r="3"/>
		<circle class="st15" cx="-117.8" cy="101.4" r="3"/>
		<circle class="st15" cx="-122.7" cy="105.4" r="3"/>
		<circle class="st15" cx="-124.4" cy="107.9" r="3"/>
		<circle class="st15" cx="-125" cy="109.1" r="3"/>
		<circle class="st15" cx="-129.1" cy="114.1" r="3"/>
		<circle class="st15" cx="-127.6" cy="118.8" r="3"/>
		<circle class="st16" cx="-8.6" cy="2.1" r="3"/>
		<circle class="st16" cx="-8.4" cy="2.8" r="3"/>
		<circle class="st16" cx="-8.7" cy="3.2" r="3"/>
		<circle class="st16" cx="-129.2" cy="-6.9" r="3"/>
		<circle class="st16" cx="-127.2" cy="101.5" r="3"/>
		<circle class="st16" cx="-123.7" cy="106.7" r="3"/>
		<circle class="st16" cx="-125.8" cy="110" r="3"/>
		<circle class="st17" cx="-5.3" cy="-9.3" r="3"/>
		<circle class="st17" cx="-6.6" cy="-7.4" r="3"/>
		<circle class="st17" cx="-9.6" cy="-1.7" r="3"/>
		<circle class="st17" cx="-31.6" cy="-1.1" r="3"/>
		<circle class="st17" cx="-127.2" cy="101.9" r="3"/>
		<circle class="st17" cx="-127" cy="110.5" r="3"/>
		<circle class="st17" cx="-129.5" cy="113.1" r="3"/>
		<circle class="st18" cx="-4" cy="-11.1" r="3"/>
		<circle class="st18" cx="-7.6" cy="-5.8" r="3"/>
		<circle class="st18" cx="-9.5" cy="3.1" r="3"/>
		<circle class="st18" cx="-14.4" cy="1.6" r="3"/>
		<circle class="st18" cx="-16.1" cy="1" r="3"/>
		<circle class="st18" cx="-19.3" cy="0.3" r="3"/>
		<circle class="st18" cx="-20.9" cy="0.1" r="3"/>
		<circle class="st18" cx="-22.8" cy="-0.1" r="3"/>
		<circle class="st18" cx="-27" cy="-0.8" r="3"/>
		<circle class="st18" cx="-29.2" cy="-0.9" r="3"/>
		<circle class="st18" cx="-34.1" cy="-1.4" r="3"/>
		<circle class="st18" cx="-123.2" cy="-8.4" r="3"/>
		<circle class="st18" cx="-123.4" cy="-8.4" r="3"/>
		<circle class="st18" cx="-123.6" cy="-8.3" r="3"/>
		<circle class="st18" cx="-123.8" cy="-8.3" r="3"/>
		<circle class="st18" cx="-124" cy="-8.2" r="3"/>
		<circle class="st18" cx="-124.3" cy="-8.2" r="3"/>
		<circle class="st18" cx="-129" cy="-7.1" r="3"/>
		<circle class="st18" cx="-128.6" cy="110.7" r="3"/>
		<circle class="st18" cx="-130.1" cy="110.8" r="3"/>
		<circle class="st18" cx="-132.1" cy="110.6" r="3"/>
		<circle class="st18" cx="-130.5" cy="112.2" r="3"/>
		<circle class="st19" cx="-2.8" cy="-12.3" r="3"/>
		<circle class="st19" cx="-8.5" cy="-4.7" r="3"/>
		<circle class="st19" cx="-9.2" cy="-4" r="3"/>
		<circle class="st19" cx="-9.5" cy="-3.5" r="3"/>
		<circle class="st19" cx="-10.8" cy="2.6" r="3"/>
		<circle class="st19" cx="-12.4" cy="2.1" r="3"/>
		<circle class="st19" cx="-17.7" cy="0.6" r="3"/>
		<circle class="st19" cx="-25" cy="-0.4" r="3"/>
		<circle class="st19" cx="-36.8" cy="-1.9" r="3"/>
		<circle class="st19" cx="-39.9" cy="-2.7" r="3"/>
		<circle class="st19" cx="-43.1" cy="-3.7" r="3"/>
		<circle class="st19" cx="-122.7" cy="-8.5" r="3"/>
		<circle class="st19" cx="-123" cy="-8.5" r="3"/>
		<circle class="st19" cx="-124.5" cy="-8.1" r="3"/>
		<circle class="st19" cx="-124.7" cy="-8.1" r="3"/>
		<circle class="st19" cx="-124.9" cy="-8" r="3"/>
		<circle class="st19" cx="-125.1" cy="-8" r="3"/>
		<circle class="st19" cx="-125.3" cy="-7.9" r="3"/>
		<circle class="st19" cx="-125.5" cy="-7.9" r="3"/>
		<circle class="st19" cx="-125.8" cy="-7.8" r="3"/>
		<circle class="st19" cx="-126" cy="-7.8" r="3"/>
		<circle class="st19" cx="-128.2" cy="-7.3" r="3"/>
		<circle class="st19" cx="-128.4" cy="-7.3" r="3"/>
		<circle class="st19" cx="-128.6" cy="-7.2" r="3"/>
		<circle class="st19" cx="-128.8" cy="-7.2" r="3"/>
		<circle class="st19" cx="-127.3" cy="100.7" r="3"/>
		<circle class="st19" cx="-141.6" cy="96.9" r="3"/>
		<circle class="st19" cx="-134.2" cy="110.4" r="3"/>
		<circle class="st19" cx="-136" cy="110.2" r="3"/>
		<circle class="st19" cx="-137.4" cy="110" r="3"/>
		<circle class="st19" cx="-139.2" cy="109.8" r="3"/>
		<circle class="st19" cx="-137.6" cy="109.9" r="3"/>
		<circle class="st19" cx="-135.8" cy="110.3" r="3"/>
		<circle class="st19" cx="-133.9" cy="110.7" r="3"/>
		<circle class="st19" cx="-132" cy="111.3" r="3"/>
		<circle class="st20" cx="-1" cy="-13.3" r="3"/>
		<circle class="st20" cx="-9.6" cy="-2.7" r="3"/>
		<circle class="st20" cx="-46.5" cy="-5" r="3"/>
		<circle class="st20" cx="-50.4" cy="-6.3" r="3"/>
		<circle class="st20" cx="-54.9" cy="-7.2" r="3"/>
		<circle class="st20" cx="-59.9" cy="-7.9" r="3"/>
		<circle class="st20" cx="-65.8" cy="-8.7" r="3"/>
		<circle class="st20" cx="-72.7" cy="-9.4" r="3"/>
		<circle class="st20" cx="-80.1" cy="-9.9" r="3"/>
		<circle class="st20" cx="-88" cy="-10.4" r="3"/>
		<circle class="st20" cx="-95.7" cy="-10.9" r="3"/>
		<circle class="st20" cx="-101.8" cy="-11.2" r="3"/>
		<circle class="st20" cx="-106.3" cy="-11.3" r="3"/>
		<circle class="st20" cx="-109.1" cy="-11.3" r="3"/>
		<circle class="st20" cx="-110.2" cy="-11.3" r="3"/>
		<circle class="st20" cx="-110.4" cy="-11.3" r="3"/>
		<circle class="st20" cx="-111" cy="-11.1" r="3"/>
		<circle class="st20" cx="-111.2" cy="-11.1" r="3"/>
		<circle class="st20" cx="-126.2" cy="-7.8" r="3"/>
		<circle class="st20" cx="-126.4" cy="-7.7" r="3"/>
		<circle class="st20" cx="-126.6" cy="-7.7" r="3"/>
		<circle class="st20" cx="-127.7" cy="-7.4" r="3"/>
		<circle class="st20" cx="-127.9" cy="-7.4" r="3"/>
		<circle class="st20" cx="-128.5" cy="99" r="3"/>
		<circle class="st20" cx="-140.7" cy="96" r="3"/>
		<circle class="st20" cx="-141.4" cy="96.6" r="3"/>
		<circle class="st20" cx="-140.8" cy="96.4" r="3"/>
		<circle class="st20" cx="-138.6" cy="109.9" r="3"/>
		<circle class="st20" cx="-138.8" cy="109.8" r="3"/>
		<circle class="st21" cx="-6.4" cy="168" r="3"/>
		<circle class="st21" cx="-8.1" cy="-2.7" r="3"/>
		<circle class="st21" cx="-8.4" cy="-2.4" r="3"/>
		<circle class="st21" cx="0.9" cy="-14" r="3"/>
		<circle class="st21" cx="-111.4" cy="-11" r="3"/>
		<circle class="st21" cx="-111.6" cy="-11" r="3"/>
		<circle class="st21" cx="-111.8" cy="-10.9" r="3"/>
		<circle class="st21" cx="-112.1" cy="-10.9" r="3"/>
		<circle class="st21" cx="-112.3" cy="-10.8" r="3"/>
		<circle class="st21" cx="-112.5" cy="-10.8" r="3"/>
		<circle class="st21" cx="-112.7" cy="-10.8" r="3"/>
		<circle class="st21" cx="-112.9" cy="-10.7" r="3"/>
		<circle class="st21" cx="-113.1" cy="-10.7" r="3"/>
		<circle class="st21" cx="-113.4" cy="-10.6" r="3"/>
		<circle class="st21" cx="-113.6" cy="-10.6" r="3"/>
		<circle class="st21" cx="-113.8" cy="-10.5" r="3"/>
		<circle class="st21" cx="-114" cy="-10.5" r="3"/>
		<circle class="st21" cx="-114.7" cy="-10.3" r="3"/>
		<circle class="st21" cx="-114.9" cy="-10.3" r="3"/>
		<circle class="st21" cx="-115.1" cy="-10.2" r="3"/>
		<circle class="st21" cx="-115.3" cy="-10.2" r="3"/>
		<circle class="st21" cx="-115.5" cy="-10.1" r="3"/>
		<circle class="st21" cx="-115.8" cy="-10.1" r="3"/>
		<circle class="st21" cx="-116" cy="-10" r="3"/>
		<circle class="st21" cx="-126.8" cy="-7.6" r="3"/>
		<circle class="st21" cx="-127.1" cy="-7.6" r="3"/>
		<circle class="st21" cx="-127.3" cy="-7.5" r="3"/>
		<circle class="st21" cx="-127.5" cy="-7.5" r="3"/>
		<circle class="st21" cx="-130.4" cy="97.1" r="3"/>
		<circle class="st21" cx="-137.6" cy="94.2" r="3"/>
		<circle class="st21" cx="-138.2" cy="94.4" r="3"/>
		<circle class="st21" cx="-138.7" cy="94.6" r="3"/>
		<circle class="st21" cx="-139.2" cy="94.8" r="3"/>
		<circle class="st21" cx="-139.8" cy="95.3" r="3"/>
		<circle class="st22" cx="-5" cy="169.1" r="3"/>
		<circle class="st22" cx="-6.2" cy="168.5" r="3"/>
		<circle class="st22" cx="-6.3" cy="168.2" r="3"/>
		<circle class="st22" cx="-5.8" cy="168.1" r="3"/>
		<circle class="st22" cx="-7.6" cy="-0.2" r="3"/>
		<circle class="st22" cx="-12.1" cy="-0.4" r="3"/>
		<circle class="st22" cx="-9.9" cy="-2.3" r="3"/>
		<circle class="st22" cx="-9.5" cy="-2.1" r="3"/>
		<circle class="st22" cx="-7.6" cy="-3" r="3"/>
		<circle class="st22" cx="-8.4" cy="-2.5" r="3"/>
		<circle class="st22" cx="-8.3" cy="-3" r="3"/>
		<circle class="st22" cx="-7.9" cy="-5.8" r="3"/>
		<circle class="st22" cx="1.5" cy="-15.3" r="3"/>
		<circle class="st22" cx="-110.6" cy="-11.2" r="3"/>
		<circle class="st22" cx="-110.8" cy="-11.2" r="3"/>
		<circle class="st22" cx="-114.2" cy="-10.4" r="3"/>
		<circle class="st22" cx="-114.4" cy="-10.4" r="3"/>
		<circle class="st22" cx="-116.2" cy="-10" r="3"/>
		<circle class="st22" cx="-116.4" cy="-9.9" r="3"/>
		<circle class="st22" cx="-122.5" cy="-8.6" r="3"/>
		<circle class="st22" cx="-132.5" cy="95.6" r="3"/>
		<circle class="st22" cx="-134.3" cy="94.6" r="3"/>
		<circle class="st22" cx="-135.8" cy="94.2" r="3"/>
		<circle class="st22" cx="-136.9" cy="94.1" r="3"/>
		<circle class="st22" cx="-138.9" cy="95.4" r="3"/>
		<circle class="st23" cx="-7.8" cy="198.2" r="3"/>
		<circle class="st23" cx="-4.3" cy="168.7" r="3"/>
		<circle class="st23" cx="-7.6" cy="-0.2" r="3"/>
		<circle class="st23" cx="-8.4" cy="-0.6" r="3"/>
		<circle class="st23" cx="-9" cy="-0.8" r="3"/>
		<circle class="st23" cx="-14.4" cy="-0.2" r="3"/>
		<circle class="st23" cx="-14.7" cy="-0.5" r="3"/>
		<circle class="st23" cx="-14.9" cy="-0.8" r="3"/>
		<circle class="st23" cx="-14.7" cy="-1.3" r="3"/>
		<circle class="st23" cx="-12" cy="-2.3" r="3"/>
		<circle class="st23" cx="-10" cy="-2.9" r="3"/>
		<circle class="st23" cx="-10" cy="-2.9" r="3"/>
		<circle class="st23" cx="-10" cy="-2.8" r="3"/>
		<circle class="st23" cx="-10.1" cy="-2.5" r="3"/>
		<circle class="st23" cx="-9.1" cy="-2.1" r="3"/>
		<circle class="st23" cx="-8.2" cy="-3.9" r="3"/>
		<circle class="st23" cx="-8" cy="-4.8" r="3"/>
		<circle class="st23" cx="-7.8" cy="-6.7" r="3"/>
		<circle class="st23" cx="-7.6" cy="-7.4" r="3"/>
		<circle class="st23" cx="-7.2" cy="-8.1" r="3"/>
		<circle class="st23" cx="1.9" cy="-14.9" r="3"/>
		<circle class="st23" cx="1.6" cy="-15.9" r="3"/>
		<circle class="st23" cx="2.3" cy="-16.7" r="3"/>
		<circle class="st23" cx="2.9" cy="-17" r="3"/>
		<circle class="st23" cx="3.4" cy="-17.1" r="3"/>
		<circle class="st23" cx="-116.6" cy="-9.9" r="3"/>
		<circle class="st23" cx="-116.8" cy="-9.8" r="3"/>
		<circle class="st23" cx="-117" cy="-9.8" r="3"/>
		<circle class="st23" cx="-117.7" cy="-9.6" r="3"/>
		<circle class="st23" cx="-118" cy="-9.6" r="3"/>
		<circle class="st23" cx="-118.2" cy="-9.5" r="3"/>
		<circle class="st23" cx="-118.4" cy="-9.5" r="3"/>
		<circle class="st23" cx="-118.6" cy="-9.4" r="3"/>
		<circle class="st23" cx="-118.8" cy="-9.4" r="3"/>
		<circle class="st23" cx="-119" cy="-9.3" r="3"/>
		<circle class="st23" cx="-119.3" cy="-9.3" r="3"/>
		<circle class="st23" cx="-119.5" cy="-9.3" r="3"/>
		<circle class="st23" cx="-119.7" cy="-9.2" r="3"/>
		<circle class="st23" cx="-119.9" cy="-9.2" r="3"/>
		<circle class="st23" cx="-120.1" cy="-9.1" r="3"/>
		<circle class="st23" cx="-120.3" cy="-9.1" r="3"/>
		<circle class="st23" cx="-120.6" cy="-9" r="3"/>
		<circle class="st23" cx="-120.8" cy="-9" r="3"/>
		<circle class="st23" cx="-121" cy="-8.9" r="3"/>
		<circle class="st23" cx="-121.2" cy="-8.9" r="3"/>
		<circle class="st23" cx="-121.4" cy="-8.8" r="3"/>
		<circle class="st23" cx="-121.6" cy="-8.8" r="3"/>
		<circle class="st23" cx="-121.9" cy="-8.7" r="3"/>
		<circle class="st23" cx="-122.1" cy="-8.7" r="3"/>
		<circle class="st23" cx="-122.3" cy="-8.6" r="3"/>
		<circle class="st24" cx="-2.6" cy="170.3" r="3"/>
		<circle class="st24" cx="-1.5" cy="170" r="3"/>
		<circle class="st24" cx="-7.6" cy="-0.3" r="3"/>
		<circle class="st24" cx="-7.9" cy="-0.2" r="3"/>
		<circle class="st24" cx="-8.2" cy="-0.4" r="3"/>
		<circle class="st24" cx="-8.5" cy="-2.2" r="3"/>
		<circle class="st24" cx="-6.8" cy="-8.9" r="3"/>
		<circle class="st24" cx="-6.3" cy="-9.6" r="3"/>
		<circle class="st24" cx="3.8" cy="-16.9" r="3"/>
		<circle class="st24" cx="4.2" cy="-16.5" r="3"/>
		<circle class="st24" cx="2.4" cy="-14.3" r="3"/>
		<circle class="st24" cx="-117.2" cy="-9.8" r="3"/>
		<circle class="st24" cx="-117.3" cy="-9.7" r="3"/>
		<circle class="st24" cx="-117.5" cy="-9.7" r="3"/>
		<circle class="st25" cx="-8.3" cy="196.5" r="3"/>
		<circle class="st25" cx="-8.6" cy="194.9" r="3"/>
		<circle class="st25" cx="1.3" cy="171.3" r="3"/>
		<circle class="st25" cx="4.8" cy="173.6" r="3"/>
		<circle class="st25" cx="4.8" cy="173.8" r="3"/>
		<circle class="st25" cx="-5.2" cy="170.1" r="3"/>
		<circle class="st25" cx="-7.4" cy="169.1" r="3"/>
		<circle class="st25" cx="-8.7" cy="168.2" r="3"/>
		<circle class="st25" cx="-9.3" cy="166.9" r="3"/>
		<circle class="st25" cx="-8.7" cy="165.1" r="3"/>
		<circle class="st25" cx="-6.9" cy="162.9" r="3"/>
		<circle class="st25" cx="-5.6" cy="159.9" r="3"/>
		<circle class="st25" cx="-4.3" cy="151.1" r="3"/>
		<circle class="st25" cx="-3.5" cy="83" r="3"/>
		<circle class="st25" cx="-4.4" cy="47.1" r="3"/>
		<circle class="st25" cx="-6.2" cy="22.2" r="3"/>
		<circle class="st25" cx="-6.5" cy="17.2" r="3"/>
		<circle class="st25" cx="-7.3" cy="9.4" r="3"/>
		<circle class="st25" cx="-7.5" cy="6.6" r="3"/>
		<circle class="st25" cx="-7.4" cy="4.6" r="3"/>
		<circle class="st25" cx="-11.5" cy="1.4" r="3"/>
		<circle class="st25" cx="-7.8" cy="-2.2" r="3"/>
		<circle class="st25" cx="-7.2" cy="-2.3" r="3"/>
		<circle class="st25" cx="-6.7" cy="-2.3" r="3"/>
		<circle class="st25" cx="-6.9" cy="-3.3" r="3"/>
		<circle class="st25" cx="-5.6" cy="-10.1" r="3"/>
		<circle class="st25" cx="4.4" cy="-16.1" r="3"/>
		<circle class="st25" cx="4.4" cy="-15.7" r="3"/>
		<circle class="st25" cx="3.6" cy="-14.9" r="3"/>
		<circle class="st25" cx="-136.1" cy="93.8" r="3"/>
		<circle class="st26" cx="-8.7" cy="193" r="3"/>
		<circle class="st26" cx="-4.6" cy="181.7" r="3"/>
		<circle class="st26" cx="3.7" cy="172.7" r="3"/>
		<circle class="st26" cx="3.4" cy="173.4" r="3"/>
		<circle class="st26" cx="1.7" cy="172.6" r="3"/>
		<circle class="st26" cx="-0.1" cy="171.9" r="3"/>
		<circle class="st26" cx="-2.1" cy="171.1" r="3"/>
		<circle class="st26" cx="-4.9" cy="155.8" r="3"/>
		<circle class="st26" cx="-4.1" cy="146.1" r="3"/>
		<circle class="st26" cx="-4" cy="140.8" r="3"/>
		<circle class="st26" cx="-3.9" cy="135.2" r="3"/>
		<circle class="st26" cx="-3.6" cy="129.8" r="3"/>
		<circle class="st26" cx="-3.5" cy="124.8" r="3"/>
		<circle class="st26" cx="-3.4" cy="119.7" r="3"/>
		<circle class="st26" cx="-3.1" cy="114.6" r="3"/>
		<circle class="st26" cx="-3" cy="109.3" r="3"/>
		<circle class="st26" cx="-3.3" cy="103.5" r="3"/>
		<circle class="st26" cx="-3.4" cy="97.1" r="3"/>
		<circle class="st26" cx="-3.3" cy="90.3" r="3"/>
		<circle class="st26" cx="-3.6" cy="75.6" r="3"/>
		<circle class="st26" cx="-3.6" cy="68.4" r="3"/>
		<circle class="st26" cx="-3.6" cy="61.2" r="3"/>
		<circle class="st26" cx="-4" cy="54.1" r="3"/>
		<circle class="st26" cx="-4.7" cy="40.4" r="3"/>
		<circle class="st26" cx="-5.1" cy="33.9" r="3"/>
		<circle class="st26" cx="-5.6" cy="27.8" r="3"/>
		<circle class="st26" cx="-6.8" cy="13" r="3"/>
		<circle class="st26" cx="-7.3" cy="3.1" r="3"/>
		<circle class="st26" cx="-7.2" cy="2.1" r="3"/>
		<circle class="st26" cx="-12.6" cy="1.6" r="3"/>
		<circle class="st26" cx="-8.8" cy="0.6" r="3"/>
		<circle class="st26" cx="-3.5" cy="-3.4" r="3"/>
		<circle class="st26" cx="-4.6" cy="-3.6" r="3"/>
		<circle class="st26" cx="-5.8" cy="-3.6" r="3"/>
		<circle class="st26" cx="-4.9" cy="-10.4" r="3"/>
		<circle class="st26" cx="-3.9" cy="-10.7" r="3"/>
		<circle class="st26" cx="-0.9" cy="-13" r="3"/>
		<circle class="st26" cx="-0.5" cy="-13.5" r="3"/>
		<circle class="st26" cx="0.1" cy="-14" r="3"/>
		<circle class="st26" cx="4.7" cy="-15.8" r="3"/>
		<circle class="st26" cx="4.4" cy="-15.6" r="3"/>
		<circle class="st26" cx="3.4" cy="-15.1" r="3"/>
		<circle class="st26" cx="2.5" cy="-14.8" r="3"/>
		<circle class="st26" cx="-133" cy="91.9" r="3"/>
		<circle class="st27" cx="-3.6" cy="187.9" r="3"/>
		<circle class="st27" cx="-4.2" cy="185.8" r="3"/>
		<circle class="st27" cx="-4.8" cy="183.5" r="3"/>
		<circle class="st27" cx="-3.8" cy="180.3" r="3"/>
		<circle class="st27" cx="-2.7" cy="179.1" r="3"/>
		<circle class="st27" cx="0.4" cy="171.9" r="3"/>
		<circle class="st27" cx="-7.1" cy="1.3" r="3"/>
		<circle class="st27" cx="-7.3" cy="0.5" r="3"/>
		<circle class="st27" cx="-7.6" cy="-0.1" r="3"/>
		<circle class="st27" cx="-8.8" cy="-0.1" r="3"/>
		<circle class="st27" cx="-12.9" cy="1.4" r="3"/>
		<circle class="st27" cx="-7.5" cy="0" r="3"/>
		<circle class="st27" cx="-7.5" cy="-0.2" r="3"/>
		<circle class="st27" cx="-6.1" cy="-2.3" r="3"/>
		<circle class="st27" cx="-4.3" cy="-2.4" r="3"/>
		<circle class="st27" cx="-3.8" cy="-0.8" r="3"/>
		<circle class="st27" cx="-4.5" cy="-0.6" r="3"/>
		<circle class="st27" cx="3.2" cy="-2.4" r="3"/>
		<circle class="st27" cx="1.5" cy="-2.7" r="3"/>
		<circle class="st27" cx="-0.1" cy="-2.9" r="3"/>
		<circle class="st27" cx="-1.2" cy="-3.1" r="3"/>
		<circle class="st27" cx="-2.3" cy="-3.2" r="3"/>
		<circle class="st27" cx="-3" cy="-11" r="3"/>
		<circle class="st27" cx="-2.2" cy="-11.4" r="3"/>
		<circle class="st27" cx="-1.6" cy="-11.9" r="3"/>
		<circle class="st27" cx="-1.2" cy="-12.5" r="3"/>
		<circle class="st27" cx="1.2" cy="-14.4" r="3"/>
		<circle class="st27" cx="2.4" cy="-14.8" r="3"/>
		<circle class="st27" cx="3.5" cy="-15.2" r="3"/>
		<circle class="st27" cx="4.3" cy="-15.7" r="3"/>
		<circle class="st27" cx="-130.6" cy="90.2" r="3"/>
		<circle class="st27" cx="-128.7" cy="88.9" r="3"/>
		<circle class="st27" cx="-127.2" cy="88.2" r="3"/>
		<circle class="st28" cx="-8.7" cy="191" r="3"/>
		<circle class="st28" cx="-1.2" cy="178.3" r="3"/>
		<circle class="st28" cx="0.8" cy="178" r="3"/>
		<circle class="st28" cx="3" cy="177.7" r="3"/>
		<circle class="st28" cx="-11.7" cy="0.6" r="3"/>
		<circle class="st28" cx="-13.1" cy="1.1" r="3"/>
		<circle class="st28" cx="-5.5" cy="-2.2" r="3"/>
		<circle class="st28" cx="-4.9" cy="-2.3" r="3"/>
		<circle class="st28" cx="-4.6" cy="-2.4" r="3"/>
		<circle class="st28" cx="-4.1" cy="-2.2" r="3"/>
		<circle class="st28" cx="-3.7" cy="-1.9" r="3"/>
		<circle class="st28" cx="-3.5" cy="-1.5" r="3"/>
		<circle class="st28" cx="-3.4" cy="-1.1" r="3"/>
		<circle class="st28" cx="-5.3" cy="-0.7" r="3"/>
		<circle class="st28" cx="-5.6" cy="-0.7" r="3"/>
		<circle class="st28" cx="-5.3" cy="-0.7" r="3"/>
		<circle class="st28" cx="6" cy="-0.3" r="3"/>
		<circle class="st28" cx="5.5" cy="-0.7" r="3"/>
		<circle class="st28" cx="5.3" cy="-0.7" r="3"/>
		<circle class="st28" cx="5.5" cy="-0.4" r="3"/>
		<circle class="st28" cx="6.8" cy="-0.8" r="3"/>
		<circle class="st28" cx="5" cy="-1.8" r="3"/>
		<circle class="st29" cx="-8.1" cy="190.1" r="3"/>
		<circle class="st29" cx="-5.2" cy="190.2" r="3"/>
		<circle class="st29" cx="-4" cy="190.4" r="3"/>
		<circle class="st29" cx="-3.2" cy="190.7" r="3"/>
		<circle class="st29" cx="-3.2" cy="189.7" r="3"/>
		<circle class="st29" cx="4.9" cy="177.4" r="3"/>
		<circle class="st29" cx="6.1" cy="175.3" r="3"/>
		<circle class="st29" cx="3.3" cy="173.6" r="3"/>
		<circle class="st29" cx="-4.4" cy="-0.6" r="3"/>
		<circle class="st29" cx="-2.9" cy="-0.5" r="3"/>
		<circle class="st29" cx="7.1" cy="1.1" r="3"/>
		<circle class="st29" cx="6.6" cy="0.4" r="3"/>
		<circle class="st29" cx="6" cy="0.1" r="3"/>
		<circle class="st29" cx="6.5" cy="0.7" r="3"/>
		<circle class="st29" cx="8.2" cy="0.5" r="3"/>
		<circle class="st29" cx="-125.9" cy="88.1" r="3"/>
		<circle class="st7" cx="-6.7" cy="190" r="3"/>
		<circle class="st7" cx="6.4" cy="177.2" r="3"/>
		<circle class="st7" cx="7.1" cy="176.5" r="3"/>
		<circle class="st7" cx="-3.6" cy="-0.5" r="3"/>
		<circle class="st7" cx="-3.1" cy="-0.5" r="3"/>
		<circle class="st7" cx="-2.8" cy="-0.5" r="3"/>
		<circle class="st7" cx="-2.5" cy="-0.5" r="3"/>
		<circle class="st7" cx="-1.6" cy="-0.3" r="3"/>
		<circle class="st7" cx="1.8" cy="0.5" r="3"/>
		<circle class="st7" cx="5.7" cy="2.3" r="3"/>
		<circle class="st7" cx="6.4" cy="2.7" r="3"/>
		<circle class="st7" cx="6.8" cy="2.7" r="3"/>
		<circle class="st7" cx="7.2" cy="2.4" r="3"/>
		<circle class="st7" cx="7.4" cy="1.9" r="3"/>
		<circle class="st7" cx="7.1" cy="1.2" r="3"/>
		<circle class="st7" cx="7.7" cy="1.6" r="3"/>
		<circle class="st7" cx="8.2" cy="1.8" r="3"/>
		<circle class="st7" cx="8.6" cy="1.8" r="3"/>
		<circle class="st7" cx="9" cy="1.8" r="3"/>
		<circle class="st7" cx="9.4" cy="1.8" r="3"/>
		<circle class="st7" cx="9.7" cy="1.9" r="3"/>
		<circle class="st7" cx="10.1" cy="2.1" r="3"/>
		<circle class="st7" cx="9.1" cy="2" r="3"/>
		<circle class="st7" cx="-124.7" cy="88.3" r="3"/>
		<circle class="st7" cx="-123.1" cy="89.1" r="3"/>
	</g>
	<g transform="translate(558.0555,275.341)">
		<circle cx="0" cy="0" r="3.7"/>
		<path d="M-19.2,7.1l3.7,4.9l3.7-4.9l-3.7-4.9L-19.2,7.1z"/>
	</g>
	<g>
		<g>
			<defs>
				<circle id="SVGID_1_" cx="176.6" cy="185.9" r="81.9"/>
			</defs>
			<clipPath id="SVGID_00000118383434682817965450000014011048605691865740_">
				<use xlink:href="#SVGID_1_"  style="overflow:visible;"/>
			</clipPath>
			<g transform="matrix(0.5,0,0,0.5,86,67)" style="clip-path:url(#SVGID_00000118383434682817965450000014011048605691865740_);">
				<g>
					<defs>
						<rect id="SVGID_00000122001454282417014050000015337248656857939619_" x="70.1" y="126.9" width="222" height="222"/>
					</defs>
					<clipPath id="SVGID_00000134941097434452314740000004484630598905623986_">
						<use xlink:href="#SVGID_00000122001454282417014050000015337248656857939619_"  style="overflow:visible;"/>
					</clipPath>
					<g style="clip-path:url(#SVGID_00000134941097434452314740000004484630598905623986_);enable-background:new    ;">
						
							<image style="overflow:visible;" width="444" height="444" xlink:href="AB56283E.jpg"  transform="matrix(1 0 0 1 -40.8889 15.8588)">
						</image>
					</g>
				</g>
			</g>
		</g>
		<circle class="st0" cx="176.6" cy="185.9" r="45.3"/>
	</g>
</g>
</svg>
